<svg width="40" height="30" viewBox="0 0 40 30" fill="none" xmlns="http://www.w3.org/2000/svg">
<path d="M31.7617 28.3208L38.2934 20.1562C39.354 18.7669 39.9458 16.9203 39.9458 14.9999C39.9458 13.0796 39.354 11.233 38.2934 9.84369L31.7617 1.67911C31.5311 1.38064 31.2553 1.14257 30.9503 0.978788C30.6452 0.81501 30.3172 0.728804 29.9853 0.725199C29.6533 0.721594 29.3241 0.800661 29.0169 0.957788C28.7096 1.11492 28.4305 1.34696 28.1958 1.64037C27.961 1.93379 27.7754 2.2827 27.6497 2.66675C27.524 3.0508 27.4607 3.4623 27.4636 3.87724C27.4665 4.29217 27.5355 4.70223 27.6665 5.08349C27.7975 5.46476 27.988 5.80958 28.2267 6.09785L32.8584 11.8916L2.44175 11.9395C1.77871 11.9395 1.14283 12.2688 0.673985 12.8548C0.205143 13.4409 -0.0582504 14.2357 -0.0582504 15.0645C-0.0582504 15.8933 0.205143 16.6882 0.673985 17.2742C1.14283 17.8603 1.77871 18.1895 2.44175 18.1895L32.8334 18.1416L28.2267 23.902C27.7714 24.4914 27.5194 25.2808 27.5251 26.1002C27.5308 26.9195 27.7937 27.7033 28.2572 28.2827C28.7207 28.8621 29.3478 29.1908 30.0032 29.1979C30.6587 29.205 31.2902 28.89 31.7617 28.3208Z" fill="white" fill-opacity="0.8"/>
</svg>
