<svg width="64" height="55" viewBox="0 0 64 55" fill="none" xmlns="http://www.w3.org/2000/svg">
<path d="M0.660352 25.801C2.02035 25.801 2.98035 25.431 3.54035 24.691C4.10035 23.951 4.38035 23.031 4.38035 21.931V7.86097C4.38035 6.50097 4.57035 5.29097 4.95035 4.23097C5.33035 3.15097 5.98035 2.30097 6.90035 1.68097C7.82035 1.06097 9.09035 0.750974 10.7104 0.750974H14.0404V4.83098H11.7604C10.7204 4.83098 9.95035 5.08097 9.45035 5.58097C8.95035 6.06097 8.70035 6.85097 8.70035 7.95097V22.501C8.70035 23.841 8.41035 24.971 7.83035 25.891C7.27035 26.811 6.38035 27.401 5.16035 27.661C6.40035 27.941 7.30035 28.541 7.86035 29.461C8.42035 30.361 8.70035 31.461 8.70035 32.761V47.311C8.70035 48.231 8.90035 48.981 9.30035 49.561C9.72035 50.141 10.5404 50.431 11.7604 50.431H14.0404V54.511H10.7104C9.09035 54.511 7.82035 54.201 6.90035 53.581C5.98035 52.961 5.33035 52.111 4.95035 51.031C4.57035 49.971 4.38035 48.761 4.38035 47.401V33.331C4.38035 32.231 4.10035 31.311 3.54035 30.571C2.98035 29.811 2.02035 29.431 0.660352 29.431V25.801ZM50.4479 54.511V50.431H52.6979C53.9379 50.431 54.7579 50.141 55.1579 49.561C55.5579 48.981 55.7579 48.231 55.7579 47.311V32.761C55.7579 31.461 56.0379 30.361 56.5979 29.461C57.1779 28.541 58.0879 27.941 59.3279 27.661C58.1079 27.401 57.2079 26.811 56.6279 25.891C56.0479 24.971 55.7579 23.841 55.7579 22.501V7.95097C55.7579 6.85097 55.5079 6.06097 55.0079 5.58097C54.5279 5.08097 53.7579 4.83098 52.6979 4.83098H50.4479V0.750974H53.7779C55.3979 0.750974 56.6679 1.06097 57.5879 1.68097C58.5079 2.30097 59.1579 3.15097 59.5379 4.23097C59.9179 5.29097 60.1079 6.50097 60.1079 7.86097V21.931C60.1079 23.031 60.3779 23.951 60.9179 24.691C61.4779 25.431 62.4479 25.801 63.8279 25.801V29.431C62.4479 29.431 61.4779 29.811 60.9179 30.571C60.3779 31.311 60.1079 32.231 60.1079 33.331V47.401C60.1079 48.761 59.9179 49.971 59.5379 51.031C59.1579 52.111 58.5079 52.961 57.5879 53.581C56.6679 54.201 55.3979 54.511 53.7779 54.511H50.4479Z" fill="white" fill-opacity="0.5"/>
<path d="M41.3905 10.621V33.256C41.3905 34.666 41.1355 35.956 40.6255 37.126C40.1455 38.266 39.4405 39.241 38.5105 40.051C37.6105 40.861 36.5155 41.491 35.2255 41.941C33.9355 42.361 32.4955 42.571 30.9055 42.571C27.6955 42.571 25.2055 41.776 23.4355 40.186C21.6955 38.566 20.5855 36.451 20.1055 33.841L26.4955 32.536C26.7355 33.886 27.1855 34.981 27.8455 35.821C28.5355 36.661 29.5555 37.081 30.9055 37.081C32.0455 37.081 32.9305 36.721 33.5605 36.001C34.2205 35.251 34.5505 34.111 34.5505 32.581V16.156H24.2005V10.621H41.3905Z" fill="white"/>
</svg>
